<svg xmlns="http://www.w3.org/2000/svg" viewBox="0 0 735 135.05"><defs><style>.cls-1{fill:#F6F3FF;fill-rule:evenodd;}</style></defs><title>Asset 1</title><g id="Layer_2" data-name="Layer 2"><g id="Layer_1-2" data-name="Layer 1"><path class="cls-1" d="M370.05.05V75.72q0,30.27-15.77,45.8a52.16,52.16,0,0,1-25.19,13.53H311V109.49h0q13.93,0,21.57-8.35t7.64-24.26V.05Zm103.18,0a68.41,68.41,0,0,1,33.36,17.62q20.48,19.6,20.48,49.38,0,29.57-20.58,49.29-15.94,15.27-38.8,18.71H400.05V108.64h53.76q18.7,0,30.13-11.54t11.42-30.06q0-18.33-11.52-30t-30-11.63H430.38v28.6H400.05V.05ZM47,.05V24a14.71,14.71,0,0,0-8.58,3.21q-3.93,3.27-3.93,9.41a13.59,13.59,0,0,0,3.64,9.88,23.7,23.7,0,0,0,9.49,5.76q5.85,2,13,3.84A147.53,147.53,0,0,1,75,60.52,62.65,62.65,0,0,1,87.88,67,28.19,28.19,0,0,1,97.37,77.8,36,36,0,0,1,101,94.59q0,17.09-13.89,29.27A48.58,48.58,0,0,1,62.8,135.05H37.58q-14-2.31-23.68-9.94Q0,114.17,0,94H34.88q1.35,16.11,16.49,16.12,7.1,0,11.12-3.74a12.44,12.44,0,0,0,4-9.51,12.73,12.73,0,0,0-3.64-9.4,25.38,25.38,0,0,0-9.49-5.76q-5.85-2.12-13-3.93a133.21,133.21,0,0,1-14.28-4.51,70,70,0,0,1-12.94-6.43A27.45,27.45,0,0,1,3.64,56.11,35.53,35.53,0,0,1,0,39.51Q0,20.7,14,9.37A49,49,0,0,1,32.83.05Zm205,0h29.8v54H252V.05Zm-139,0H227V26H185v109H155v-109H113V.05ZM543.07,82h30v53h-30V82Zm0-28V.05h30v54ZM682.27,0a66.57,66.57,0,0,1,32.61,18.06q20.11,20,20.12,49,0,28.78-20.41,49a67.14,67.14,0,0,1-37.31,19H650.42a66.73,66.73,0,0,1-37.22-19,65.7,65.7,0,0,1-18.65-34h31.66a41.08,41.08,0,0,0,9,14.74q11.44,12.21,29,12.2T693,96.88q11.26-12.1,11.26-29.83,0-17.53-11.45-29.74t-29-12.19q-17.55,0-28.81,12.1a40.69,40.69,0,0,0-9.53,16.83H594.19q3.64-20.49,19.2-35.89A67.13,67.13,0,0,1,646,.05"/></g></g></svg>